<mxfile host="app.diagrams.net" modified="2023-06-25T22:01:29.505Z" agent="Mozilla/5.0 (Windows NT 10.0; Win64; x64) AppleWebKit/537.36 (KHTML, like Gecko) Chrome/114.0.0.0 Safari/537.36" etag="0VXWmoTyWefppqJGNgKr" version="21.5.0" type="device">
  <diagram name="Page-1" id="wnHaTxV7M6vfOgKo9EU0">
    <mxGraphModel dx="1434" dy="756" grid="1" gridSize="10" guides="1" tooltips="1" connect="1" arrows="1" fold="1" page="1" pageScale="1" pageWidth="850" pageHeight="1100" math="0" shadow="0">
      <root>
        <mxCell id="0" />
        <mxCell id="1" parent="0" />
        <mxCell id="74psPuubJWWWUVLqXc-5-5" value="DTO" style="edgeStyle=orthogonalEdgeStyle;rounded=0;orthogonalLoop=1;jettySize=auto;html=1;" edge="1" parent="1" source="74psPuubJWWWUVLqXc-5-1" target="74psPuubJWWWUVLqXc-5-4">
          <mxGeometry relative="1" as="geometry" />
        </mxCell>
        <mxCell id="74psPuubJWWWUVLqXc-5-1" value="Request" style="ellipse;shape=cloud;whiteSpace=wrap;html=1;" vertex="1" parent="1">
          <mxGeometry x="40" y="70" width="120" height="80" as="geometry" />
        </mxCell>
        <mxCell id="74psPuubJWWWUVLqXc-5-7" value="DTO" style="edgeStyle=orthogonalEdgeStyle;rounded=0;orthogonalLoop=1;jettySize=auto;html=1;" edge="1" parent="1" source="74psPuubJWWWUVLqXc-5-4" target="74psPuubJWWWUVLqXc-5-8">
          <mxGeometry relative="1" as="geometry">
            <mxPoint x="300" y="240" as="targetPoint" />
          </mxGeometry>
        </mxCell>
        <mxCell id="74psPuubJWWWUVLqXc-5-4" value="Controller" style="rounded=1;whiteSpace=wrap;html=1;fillColor=#d0cee2;strokeColor=#56517e;" vertex="1" parent="1">
          <mxGeometry x="240" y="80" width="120" height="60" as="geometry" />
        </mxCell>
        <mxCell id="74psPuubJWWWUVLqXc-5-10" value="Entity" style="edgeStyle=orthogonalEdgeStyle;rounded=0;orthogonalLoop=1;jettySize=auto;html=1;" edge="1" parent="1" source="74psPuubJWWWUVLqXc-5-8" target="74psPuubJWWWUVLqXc-5-9">
          <mxGeometry relative="1" as="geometry">
            <Array as="points">
              <mxPoint x="200" y="330" />
              <mxPoint x="200" y="330" />
            </Array>
          </mxGeometry>
        </mxCell>
        <mxCell id="74psPuubJWWWUVLqXc-5-12" value="Entity" style="edgeStyle=orthogonalEdgeStyle;rounded=0;orthogonalLoop=1;jettySize=auto;html=1;" edge="1" parent="1" source="74psPuubJWWWUVLqXc-5-8" target="74psPuubJWWWUVLqXc-5-11">
          <mxGeometry relative="1" as="geometry">
            <Array as="points">
              <mxPoint x="400" y="330" />
              <mxPoint x="400" y="330" />
            </Array>
          </mxGeometry>
        </mxCell>
        <mxCell id="74psPuubJWWWUVLqXc-5-8" value="Service" style="rounded=1;whiteSpace=wrap;html=1;fillColor=#D5E8D4;strokeColor=#0e8088;" vertex="1" parent="1">
          <mxGeometry x="160" y="240" width="280" height="60" as="geometry" />
        </mxCell>
        <mxCell id="74psPuubJWWWUVLqXc-5-14" value="Entity" style="edgeStyle=orthogonalEdgeStyle;rounded=0;orthogonalLoop=1;jettySize=auto;html=1;" edge="1" parent="1" source="74psPuubJWWWUVLqXc-5-9" target="74psPuubJWWWUVLqXc-5-13">
          <mxGeometry relative="1" as="geometry">
            <Array as="points">
              <mxPoint x="200" y="520" />
              <mxPoint x="300" y="520" />
            </Array>
          </mxGeometry>
        </mxCell>
        <mxCell id="74psPuubJWWWUVLqXc-5-9" value="Data Context" style="rounded=1;whiteSpace=wrap;html=1;fillColor=#fad7ac;strokeColor=#b46504;" vertex="1" parent="1">
          <mxGeometry x="140" y="400" width="120" height="60" as="geometry" />
        </mxCell>
        <mxCell id="74psPuubJWWWUVLqXc-5-15" value="Entity" style="edgeStyle=orthogonalEdgeStyle;rounded=0;orthogonalLoop=1;jettySize=auto;html=1;" edge="1" parent="1" source="74psPuubJWWWUVLqXc-5-11" target="74psPuubJWWWUVLqXc-5-13">
          <mxGeometry relative="1" as="geometry">
            <Array as="points">
              <mxPoint x="400" y="520" />
              <mxPoint x="300" y="520" />
            </Array>
          </mxGeometry>
        </mxCell>
        <mxCell id="74psPuubJWWWUVLqXc-5-11" value="Repository&amp;nbsp;" style="rounded=1;whiteSpace=wrap;html=1;fillColor=#fad7ac;strokeColor=#b46504;" vertex="1" parent="1">
          <mxGeometry x="340" y="400" width="120" height="60" as="geometry" />
        </mxCell>
        <mxCell id="74psPuubJWWWUVLqXc-5-13" value="Database" style="shape=cylinder3;whiteSpace=wrap;html=1;boundedLbl=1;backgroundOutline=1;size=15;" vertex="1" parent="1">
          <mxGeometry x="270" y="560" width="60" height="80" as="geometry" />
        </mxCell>
        <mxCell id="74psPuubJWWWUVLqXc-5-16" value="Presentation" style="rounded=0;whiteSpace=wrap;html=1;fillColor=#d0cee2;strokeColor=#56517e;" vertex="1" parent="1">
          <mxGeometry x="680" y="80" width="120" height="60" as="geometry" />
        </mxCell>
        <mxCell id="74psPuubJWWWUVLqXc-5-17" value="Application" style="rounded=0;whiteSpace=wrap;html=1;fillColor=#D5E8D4;strokeColor=#0e8088;" vertex="1" parent="1">
          <mxGeometry x="680" y="240" width="120" height="60" as="geometry" />
        </mxCell>
        <mxCell id="74psPuubJWWWUVLqXc-5-18" value="Domain" style="rounded=0;whiteSpace=wrap;html=1;fillColor=#fad7ac;strokeColor=#b46504;" vertex="1" parent="1">
          <mxGeometry x="680" y="400" width="120" height="60" as="geometry" />
        </mxCell>
      </root>
    </mxGraphModel>
  </diagram>
</mxfile>
